<svg width="40" height="40" viewBox="0 0 40 40" fill="none" xmlns="http://www.w3.org/2000/svg">
<g clip-path="url(#clip0)">
<path d="M33.3047 1.13573L22.3472 12.0932L27.8585 17.6042L38.8482 6.64671C40.363 5.13199 40.363 2.65044 38.8482 1.13573C37.301 -0.378658 34.852 -0.378658 33.3047 1.13573Z" fill="#5B5F74"/>
<path d="M25.8601 19.6346L20.3169 14.1236L19.4145 13.2212C18.9955 12.8022 18.8344 12.2221 18.9955 11.6743C19.2533 10.7074 19.35 9.67614 19.2533 8.61262C19.1566 7.42019 18.8344 6.25998 18.2865 5.19646C17.7708 4.16517 17.0296 3.23056 16.1594 2.45709C15.2893 1.68362 14.258 1.07129 13.1619 0.684553C11.7117 0.168906 10.1647 0.0399944 8.65002 0.26559C7.87687 0.394502 7.55459 1.36134 8.13438 1.90921L11.905 5.67988C13.4198 7.19459 13.5164 9.77283 12.0017 11.2875C11.2283 12.061 10.2292 12.4155 9.23012 12.4155C8.23074 12.4155 7.23199 12.0288 6.4582 11.2553L2.59085 7.45242C2.39748 7.25905 2.13966 7.16236 1.91407 7.16236C1.46287 7.16236 1.01168 7.48464 0.947228 8.00029C0.882772 8.41925 0.850544 8.83822 0.850544 9.25718C0.75386 13.8335 4.58898 18.1521 9.19725 18.571C9.4873 18.6033 9.77736 18.6033 10.0674 18.6033C10.8731 18.6033 11.6143 18.5066 12.3556 18.3132C12.936 18.1843 13.5161 18.3455 13.9348 18.7644L14.8049 19.6346L16.3518 21.1815L18.64 23.47L20.3159 25.1455L32.8203 37.6503C33.5938 38.4234 34.5929 38.8105 35.5922 38.8105C36.5913 38.8105 37.5904 38.4238 38.3638 37.6503C39.8786 36.1356 39.8786 33.654 38.3638 32.139L25.8601 19.6346Z" fill="#858AA2"/>
<path d="M9.84282 34.1375L9.77836 33.3318C9.74613 32.9128 9.90727 32.5261 10.1976 32.236L13.968 28.4657C14.065 28.3687 14.2261 28.3687 14.3228 28.4657C15.096 29.2388 16.3209 29.2388 17.0944 28.4657L18.3513 27.2088L16.8044 25.6619L15.5794 24.4372L14.3547 23.2122L12.8078 21.6653L11.5509 22.9222C10.7777 23.6953 10.7777 24.9203 11.5509 25.6938C11.6479 25.7905 11.6479 25.9516 11.5509 26.0486L7.748 29.8189C7.45827 30.109 7.07121 30.2701 6.65257 30.2382L5.84688 30.1738C5.5246 30.1412 5.23455 30.2705 5.00863 30.5283L0.239218 36.3938C-0.0830614 36.7805 -0.0508335 37.3606 0.303674 37.7151L1.30274 38.7145L2.3018 39.7136C2.65631 40.0684 3.20419 40.1003 3.62315 39.778L9.48863 35.0083C9.71423 34.7498 9.84282 34.4598 9.84282 34.1375Z" fill="#5B5F74"/>
</g>
<defs>
<clipPath id="clip0">
<rect width="40" height="40" fill="white"/>
</clipPath>
</defs>
</svg>
