<svg width="40" height="40" viewBox="0 0 40 40" fill="none" xmlns="http://www.w3.org/2000/svg">
<g clip-path="url(#clip0)">
<path d="M7.2366 16.0548C7.2366 15.5025 7.68432 15.0548 8.2366 15.0548H31.7635C32.3158 15.0548 32.7635 15.5025 32.7635 16.0548V39C32.7635 39.5523 33.2113 40 33.7635 40H38.9442C39.4965 40 39.9442 39.5523 39.9442 39V9.95653C39.9442 9.56422 39.7148 9.20814 39.3575 9.04597L19.8568 0.193141C19.5872 0.0707318 19.2772 0.0741218 19.0103 0.202399L0.622782 9.03986C0.276316 9.20638 0.0559692 9.55676 0.0559692 9.94116V39C0.0559692 39.5523 0.503685 40 1.05597 40H6.2366C6.78889 40 7.2366 39.5523 7.2366 39V16.0548Z" fill="#858AA2"/>
<path d="M18.4314 35.1351H15.9019C15.3496 35.1351 14.9019 35.5828 14.9019 36.1351V38.0425C14.9019 38.5948 15.3496 39.0425 15.9019 39.0425H18.4314C18.9837 39.0425 19.4314 38.5948 19.4314 38.0425V36.1351C19.4314 35.5828 18.9837 35.1351 18.4314 35.1351Z" fill="#5B5F74"/>
<path d="M23.9906 35.1351H21.4611C20.9088 35.1351 20.4611 35.5828 20.4611 36.1351V38.0425C20.4611 38.5948 20.9088 39.0425 21.4611 39.0425H23.9906C24.5429 39.0425 24.9906 38.5948 24.9906 38.0425V36.1351C24.9906 35.5828 24.5429 35.1351 23.9906 35.1351Z" fill="#5B5F74"/>
<path d="M12.8729 35.1351H10.3434C9.79116 35.1351 9.34344 35.5828 9.34344 36.1351V38.0425C9.34344 38.5948 9.79116 39.0425 10.3434 39.0425H12.8729C13.4252 39.0425 13.8729 38.5948 13.8729 38.0425V36.1351C13.8729 35.5828 13.4252 35.1351 12.8729 35.1351Z" fill="#5B5F74"/>
<path d="M18.4314 29.7755H15.9019C15.3496 29.7755 14.9019 30.2232 14.9019 30.7755V32.6828C14.9019 33.2351 15.3496 33.6828 15.9019 33.6828H18.4314C18.9837 33.6828 19.4314 33.2351 19.4314 32.6828V30.7755C19.4314 30.2232 18.9837 29.7755 18.4314 29.7755Z" fill="#5B5F74"/>
<path d="M12.8729 29.7755H10.3434C9.79116 29.7755 9.34344 30.2232 9.34344 30.7755V32.6828C9.34344 33.2351 9.79116 33.6828 10.3434 33.6828H12.8729C13.4252 33.6828 13.8729 33.2351 13.8729 32.6828V30.7755C13.8729 30.2232 13.4252 29.7755 12.8729 29.7755Z" fill="#5B5F74"/>
<path d="M23.9906 29.7755H21.4611C20.9088 29.7755 20.4611 30.2232 20.4611 30.7755V32.6828C20.4611 33.2351 20.9088 33.6828 21.4611 33.6828H23.9906C24.5429 33.6828 24.9906 33.2351 24.9906 32.6828V30.7755C24.9906 30.2232 24.5429 29.7755 23.9906 29.7755Z" fill="#5B5F74"/>
<path d="M18.4314 24.4166H15.9019C15.3496 24.4166 14.9019 24.8643 14.9019 25.4166V27.3239C14.9019 27.8762 15.3496 28.3239 15.9019 28.3239H18.4314C18.9837 28.3239 19.4314 27.8762 19.4314 27.3239V25.4166C19.4314 24.8643 18.9837 24.4166 18.4314 24.4166Z" fill="#5B5F74"/>
<path d="M12.8729 24.4166H10.3434C9.79116 24.4166 9.34344 24.8643 9.34344 25.4166V27.3239C9.34344 27.8762 9.79116 28.3239 10.3434 28.3239H12.8729C13.4252 28.3239 13.8729 27.8762 13.8729 27.3239V25.4166C13.8729 24.8643 13.4252 24.4166 12.8729 24.4166Z" fill="#5B5F74"/>
<path d="M29.5491 35.1351H27.0197C26.4674 35.1351 26.0197 35.5828 26.0197 36.1351V38.0425C26.0197 38.5948 26.4674 39.0425 27.0197 39.0425H29.5491C30.1014 39.0425 30.5491 38.5948 30.5491 38.0425V36.1351C30.5491 35.5828 30.1014 35.1351 29.5491 35.1351Z" fill="#5B5F74"/>
</g>
<defs>
<clipPath id="clip0">
<rect width="40" height="40" fill="white"/>
</clipPath>
</defs>
</svg>
