<svg width="44" height="44" viewBox="0 0 44 44" fill="none" xmlns="http://www.w3.org/2000/svg">
<path d="M44.0001 20C44.0001 31.0457 35.0458 40 24.0001 40C12.9544 40 4.00006 31.0457 4.00006 20C4.00006 8.9543 12.9544 0 24.0001 0C35.0458 0 44.0001 8.9543 44.0001 20Z" fill="#5B5F74"/>
<circle cx="24.0001" cy="20" r="15" fill="white"/>
<rect x="6.10352e-05" y="20" width="24" height="24" fill="white"/>
<path d="M7.00006 27C7.00006 32.0417 13.6957 38 18.0001 38" stroke="#858AA2" stroke-width="4" stroke-linecap="round" stroke-dasharray="0.1 8"/>
<path d="M25.9734 23.2143C29.5201 23.2143 32.0001 20.6926 32.0001 17.0677C32.0001 13.4429 29.5201 11 25.9734 11H19.1667C18.8906 11 18.6667 11.2279 18.6667 11.5089V20.2723H16.5001C16.2239 20.2723 16.0001 20.5002 16.0001 20.7813V22.7054C16.0001 22.9864 16.2239 23.2143 16.5001 23.2143H18.6667V24.5714H16.5001C16.2239 24.5714 16.0001 24.7993 16.0001 25.0804V26.7768C16.0001 27.0578 16.2239 27.2857 16.5001 27.2857H18.6667V29.4911C18.6667 29.7721 18.8906 30 19.1667 30H21.6067C21.8829 30 22.1067 29.7721 22.1067 29.4911V27.2857H28.8334C29.1095 27.2857 29.3334 27.0578 29.3334 26.7768V25.0804C29.3334 24.7993 29.1095 24.5714 28.8334 24.5714H22.1067V23.2143H25.9734ZM22.1067 13.9157H25.3867C27.3334 13.9157 28.5067 15.1502 28.5067 17.0677C28.5067 19.0115 27.3334 20.2723 25.3334 20.2723H22.1067V13.9157Z" fill="#5B5F74" stroke="#5B5F74" stroke-width="0.5"/>
<path d="M11.3872 17.0918L5.87921 20.357" stroke="#5B5F74" stroke-width="4" stroke-linecap="round"/>
<path d="M5.88624 20.3297L2.62103 14.8217" stroke="#5B5F74" stroke-width="4" stroke-linecap="round"/>
</svg>
