<svg width="40" height="40" viewBox="0 0 40 40" fill="none" xmlns="http://www.w3.org/2000/svg">
<g clip-path="url(#clip0)">
<path d="M2.00006 0.904846C0.895492 0.904846 6.10352e-05 1.80028 6.10352e-05 2.90485V27.2045C6.10352e-05 28.3091 0.895492 29.2045 2.00006 29.2045H20.0888C19.3813 27.8992 18.9975 26.4257 18.9975 24.912C18.9975 19.9804 23.0079 15.9001 28.0094 15.9001C32.978 15.9001 37.0213 19.9428 37.0213 24.912C37.0213 26.4253 36.6375 27.899 35.9301 29.2045H38.0001C39.1046 29.2045 40.0001 28.3091 40.0001 27.2045V2.90485C40.0001 1.80028 39.1046 0.904846 38.0001 0.904846H2.00006ZM3.92596 15.0546C3.92596 14.1352 4.66825 13.3899 5.58767 13.3899C8.50979 13.3899 13.7798 13.3899 16.6996 13.3899C17.619 13.3899 18.3613 14.1352 18.3613 15.0546C18.3613 15.974 17.619 16.7194 16.6996 16.7194C13.7797 16.7194 8.50935 16.7194 5.58766 16.7194C4.66824 16.7194 3.92596 15.974 3.92596 15.0546ZM13.87 23.0551C13.87 23.9745 13.1247 24.7768 12.2053 24.7768H5.59072C4.6713 24.7768 3.92596 24.0315 3.92596 23.112C3.92596 22.1926 4.66989 21.4473 5.58931 21.4473C7.55152 21.4473 10.2434 21.4473 12.2067 21.4473C13.1261 21.4473 13.87 22.1357 13.87 23.0551ZM32.2046 7.05283C32.2046 7.97225 31.4646 8.66195 30.5451 8.66195C25.4155 8.66195 10.5698 8.66195 5.5778 8.66195C4.65838 8.66195 3.92596 7.91662 3.92596 6.99719C3.92596 6.07777 4.6713 5.33244 5.59072 5.33244H30.5398C31.4593 5.33244 32.2046 6.13341 32.2046 7.05283Z" fill="#858AA2"/>
<path d="M33.6917 24.912C33.6917 21.7738 31.1477 19.2296 28.0093 19.2296C24.871 19.2296 22.3268 21.7738 22.3268 24.912C22.3268 26.3249 22.843 27.6168 23.6965 28.6107C23.9897 28.9522 24.0915 29.4336 23.8919 29.837L21.2351 35.2052C21.1316 35.4143 21.1045 35.653 21.1584 35.88L21.644 37.9233C21.7888 38.5324 22.4511 38.8602 23.0232 38.6059L24.9423 37.7527C25.1554 37.6579 25.3288 37.4916 25.4323 37.2825L28.0154 32.063L30.5985 37.2825C30.702 37.4916 30.8753 37.6579 31.0885 37.7527L33.0076 38.6059C33.5796 38.8602 34.242 38.5324 34.3868 37.9233L34.8724 35.88C34.9263 35.653 34.8992 35.4143 34.7957 35.2052L32.1345 29.8281C31.9351 29.4254 32.0363 28.9448 32.3284 28.6034C33.1782 27.6104 33.6917 26.3214 33.6917 24.912Z" fill="#5B5F74"/>
</g>
<defs>
<clipPath id="clip0">
<rect width="40" height="40" fill="white"/>
</clipPath>
</defs>
</svg>
