<svg width="70" height="70" viewBox="0 0 70 70" fill="none" xmlns="http://www.w3.org/2000/svg">
<g clip-path="url(#clip0)">
<rect x="12.8333" y="33.8333" width="44.3333" height="36.1667" rx="4" fill="#FFEE9C"/>
<rect x="15.1667" y="44.3333" width="40.8333" height="8.16667" fill="#FFD27B"/>
<path d="M65.4112 65.8979V66.2479H65.7612H67.9487C68.8882 66.2479 69.6495 67.0092 69.6495 67.9487C69.6495 68.8881 68.8882 69.6495 67.9487 69.6495H2.05135C1.11191 69.6495 0.350566 68.8881 0.350566 67.9487C0.350566 67.0092 1.11191 66.2479 2.05135 66.2479H4.23885H4.58885V65.8979V18.9361V18.3823L4.08866 18.6199L2.78128 19.2411L2.78116 19.2411C2.54527 19.3533 2.29717 19.4059 2.05295 19.4059C1.41552 19.4059 0.806093 19.047 0.514824 18.4345C0.111874 17.5865 0.472614 16.5722 1.32141 16.1686C1.32145 16.1686 1.32148 16.1685 1.32151 16.1685L34.2701 0.514806L34.2702 0.514756C34.7312 0.295532 35.2657 0.29507 35.7273 0.513444L35.7273 0.513457L68.6759 16.0988C69.5249 16.5005 69.8878 17.5143 69.4866 18.364C69.085 19.2128 68.0707 19.5753 67.2215 19.1741C67.2214 19.174 67.2214 19.174 67.2213 19.174L65.9109 18.554L65.4112 18.3176V18.8704V65.8979ZM16.543 45.4502H16.193V45.8002V49.9018V50.2518H16.543H53.4571H53.8071V49.9018V45.8002V45.4502H53.4571H16.543ZM53.4571 42.0487H53.8071V41.6987V37.5977V37.2477H53.4571H16.543H16.193V37.5977V41.6987V42.0487H16.543H53.4571ZM16.193 65.8979V66.2479H16.543H53.4571H53.8071V65.8979V54.0034V53.6534H53.4571H16.543H16.193V54.0034V65.8979ZM57.2086 65.8979V66.2479H57.5586H61.6596H62.0096V65.8979V16.9307V16.7091L61.8093 16.6143L35.1513 4.00414L35.0013 3.93319L34.8514 4.00439L8.19021 16.6712L7.99041 16.7661V16.9873V65.8979V66.2479H8.34041H12.4414H12.7914V65.8979V35.5469C12.7914 34.6075 13.5533 33.8461 14.4922 33.8461H55.5078C56.4468 33.8461 57.2086 34.6075 57.2086 35.5469V65.8979Z" fill="#484746" stroke="white" stroke-width="0.7"/>
<rect x="23.3333" y="16.3333" width="23.3333" height="10.5" rx="4" fill="#FFD27B"/>
<path d="M39.6757 19.9013H39.9272L40.0074 19.663C40.7627 17.4192 42.8847 15.7998 45.3773 15.7998H47.2908C48.2302 15.7998 48.9916 16.5616 48.9916 17.5005C48.9916 18.44 48.2302 19.2013 47.2908 19.2013H45.3773C44.1281 19.2013 43.1127 20.2168 43.1127 21.4659V21.7378C43.1127 22.9869 44.1281 24.0024 45.3773 24.0024H47.2913C48.2308 24.0024 48.9921 24.7637 48.9921 25.7031C48.9921 26.6425 48.2303 27.4039 47.2913 27.4039H45.3773C42.8847 27.4039 40.7626 25.7845 40.0068 23.5411L39.9265 23.3029H39.6751H30.578H30.3265L30.2463 23.5412C29.491 25.7845 27.369 27.4039 24.8764 27.4039H22.9623C22.0229 27.4039 21.2616 26.6426 21.2616 25.7031C21.2616 24.7637 22.0229 24.0024 22.9623 24.0024H24.8764C26.1257 24.0024 27.1405 22.9868 27.1405 21.7378V21.4659C27.1405 20.2169 26.1257 19.2013 24.8764 19.2013H22.9629C22.0234 19.2013 21.2621 18.44 21.2621 17.5005C21.2621 16.5616 22.0235 15.7998 22.9629 15.7998H24.8764C27.369 15.7998 29.491 17.4192 30.2463 19.663L30.3265 19.9013H30.578H39.6757Z" fill="#484746" stroke="white" stroke-width="0.7"/>
</g>
<defs>
<clipPath id="clip0">
<rect width="70" height="70" fill="white"/>
</clipPath>
</defs>
</svg>
