<svg width="146" height="123" viewBox="0 0 146 123" fill="none" xmlns="http://www.w3.org/2000/svg">
<mask id="mask0" mask-type="alpha" maskUnits="userSpaceOnUse" x="0" y="0" width="146" height="123">
<rect width="146" height="123" fill="#C4C4C4"/>
</mask>
<g mask="url(#mask0)">
</g>
<path d="M59.828 90.125C53.6285 90.125 48.5869 95.1706 48.5869 101.375C48.5869 107.579 53.6285 112.625 59.828 112.625C66.0275 112.625 71.0692 107.579 71.0692 101.375C71.0692 95.1706 66.0275 90.125 59.828 90.125ZM59.828 108.875C55.695 108.875 52.3339 105.511 52.3339 101.375C52.3339 97.2387 55.695 93.875 59.828 93.875C63.961 93.875 67.3221 97.2387 67.3221 101.375C67.3221 105.511 63.961 108.875 59.828 108.875Z" fill="#5B5F74"/>
<path d="M131.022 93.875C131.022 82.76 125.904 72.8225 117.907 66.2844V30.9012L121.816 26.99C122.921 25.8856 123.528 24.4156 123.528 22.8519C123.528 19.625 120.905 17 117.681 17C116.141 17 114.634 17.6244 113.546 18.7137L82.7094 49.5725C78.0856 32.9769 62.8781 20.75 44.8398 20.75H18.6104V110.75H43.6276C46.8726 116.345 52.9109 120.125 59.828 120.125C66.7451 120.125 72.7835 116.345 76.0284 110.75H131.022V93.875ZM121.124 75.125H112.287C104.693 75.125 98.4171 69.44 97.4447 62.1031C107.166 62.7163 115.7 67.7 121.124 75.125ZM114.16 63.6406C108.71 60.245 102.303 58.25 95.4251 58.25H90.5801L114.16 34.6513V63.6406ZM116.195 21.365C116.587 20.975 117.128 20.75 117.681 20.75C118.839 20.75 119.781 21.6931 119.781 22.8519C119.781 23.4144 119.564 23.9412 119.166 24.3387L85.2818 58.25H84.1408C84.0715 56.78 83.901 55.3363 83.6743 53.9113L116.195 21.365ZM44.8398 24.5C64.4687 24.5 80.4368 40.4806 80.4368 60.125V62H93.6471C93.9169 64.7131 94.7824 67.25 96.0864 69.5H74.0444L57.9845 40.5725C56.3358 37.5988 53.1976 35.75 49.7971 35.75H18.6104V24.5H44.8398ZM69.7577 69.5H18.6104V39.5H49.7971C51.8374 39.5 53.7203 40.6081 54.7095 42.3931L69.7577 69.5ZM18.6104 107V101.375H41.0927C41.0927 103.334 41.3981 105.223 41.9564 107H18.6104ZM59.828 116.375C51.5639 116.375 44.8398 109.646 44.8398 101.375C44.8398 93.1044 51.5639 86.375 59.828 86.375C68.0922 86.375 74.8162 93.1044 74.8162 101.375C74.8162 109.646 68.0922 116.375 59.828 116.375ZM77.6996 107C78.2598 105.223 78.5633 103.334 78.5633 101.375H116.195V97.625H78.1849C76.4443 89.0769 68.8753 82.625 59.828 82.625C50.7807 82.625 43.2117 89.0769 41.4712 97.625H18.6104V73.25H98.9304C102.333 76.7169 107.062 78.875 112.287 78.875H123.513C125.907 83.3488 127.275 88.4544 127.275 93.875V97.625H123.528V101.375H127.275V107H77.6996Z" fill="#5B5F74"/>
</svg>
