<svg width="50" height="50" viewBox="0 0 50 50" fill="none" xmlns="http://www.w3.org/2000/svg">
<path d="M43.2249 17.2487L25.415 7.59943C25.1532 7.46684 24.8466 7.46684 24.5848 7.59943L6.77514 17.2487C6.45365 17.4114 6.24998 17.748 6.24998 18.1168V40.6428C6.24998 41.6668 7.05967 42.5 8.05487 42.5H41.945C42.9403 42.5 43.75 41.6668 43.75 40.6428V18.1168C43.75 17.748 43.5463 17.4114 43.2249 17.2487ZM35.2374 30.0919H14.7625V26.7681H35.2374V30.0919ZM14.7625 32.0269H35.2374V35.3507H14.7625V32.0269ZM35.2374 24.8332H14.7625V21.3833H35.2374V24.8332ZM14.7625 37.2857H35.2374V40.565H14.7625V37.2857ZM41.8695 40.565H37.1179V20.4158C37.1179 19.8814 36.697 19.4483 36.1777 19.4483H13.8222C13.303 19.4483 12.882 19.8814 12.882 20.4158V40.565H8.13049V18.719L24.9999 9.54578L41.8695 18.719V40.565Z" fill="#5B5F74"/>
<path fill-rule="evenodd" clip-rule="evenodd" d="M43.3944 16.9141C43.8455 17.1426 44.125 17.6108 44.125 18.1168V40.6428C44.125 41.8638 43.1574 42.875 41.945 42.875H8.05488C6.84255 42.875 5.875 41.8638 5.875 40.6428V18.1168C5.875 17.6108 6.15452 17.1426 6.60574 16.9141L24.4154 7.2649C24.7836 7.07837 25.2162 7.07837 25.5845 7.26488L43.3944 16.9141ZM25.415 7.59943C25.1532 7.46684 24.8466 7.46684 24.5848 7.59943L6.77514 17.2487C6.45365 17.4114 6.24998 17.748 6.24998 18.1168V40.6428C6.24998 41.6668 7.05967 42.5 8.05487 42.5H41.945C42.9403 42.5 43.75 41.6668 43.75 40.6428V18.1168C43.75 17.748 43.5463 17.4114 43.2249 17.2487L25.415 7.59943ZM15.1375 29.7169V27.1431H34.8624V29.7169H15.1375ZM34.8624 32.4019V34.9757H15.1375V32.4019H34.8624ZM15.1375 24.4582V21.7583H34.8624V24.4582H15.1375ZM34.8624 37.6607V40.19H15.1375V37.6607H34.8624ZM37.4929 40.19H41.4945V18.9495L25 9.96609L8.50551 18.9495V40.19H12.507V20.4158C12.507 19.6845 13.0859 19.0733 13.8222 19.0733H36.1777C36.9142 19.0733 37.4929 19.6845 37.4929 20.4158V40.19ZM8.13049 18.719L24.9999 9.54578L41.8695 18.719V40.565H37.1179V20.4158C37.1179 19.8814 36.697 19.4483 36.1777 19.4483H13.8222C13.303 19.4483 12.882 19.8814 12.882 20.4158V40.565H8.13049V18.719ZM35.2374 30.0919V26.7681H14.7625V30.0919H35.2374ZM14.7625 32.0269V35.3507H35.2374V32.0269H14.7625ZM35.2374 24.8332V21.3833H14.7625V24.8332H35.2374ZM14.7625 37.2857V40.565H35.2374V37.2857H14.7625Z" fill="#5B5F74"/>
</svg>