<svg width="50" height="50" viewBox="0 0 50 50" fill="none" xmlns="http://www.w3.org/2000/svg">
<path fill-rule="evenodd" clip-rule="evenodd" d="M39.9608 28.854H16.9106C16.1336 28.854 15.4554 29.527 15.4553 30.325C15.4553 31.1059 16.1245 31.7803 16.9106 31.7803H39.5104V34.4341H16.9106C14.6687 34.4341 12.8015 32.5669 12.8015 30.325C12.8015 29.0818 13.3548 27.9779 14.2191 27.2352L9.96123 10.5736C9.68883 9.55983 8.8194 8.90354 7.83014 8.90354H4.6236V6.24976H7.83014C10.0458 6.24976 11.949 7.81009 12.4969 9.98387L13.3821 13.5251H17.0114L15.8624 10.0258L25.6615 6.84933L26.6588 9.84102L35.892 6.84798L38.0536 13.5251H44.2552L39.9608 28.854ZM34.185 10.164L29.3511 11.7318L29.9589 13.4388H35.2785L34.185 10.164ZM23.9587 10.164L19.1247 11.7318L19.7325 13.4388H25.0522L23.9587 10.164ZM40.7925 16.0926L37.9676 26.208H16.6521L14.0483 16.0927L40.7925 16.0926ZM27.8624 39.8057C27.8624 37.6422 29.6433 35.8614 31.8067 35.8614C33.9702 35.8614 35.7511 37.6422 35.7511 39.8057C35.7511 41.9615 34.0562 43.75 31.8067 43.75C29.6433 43.75 27.8624 41.9691 27.8624 39.8057ZM30.4299 39.8057C30.4299 40.522 31.0342 41.1825 31.8067 41.1825C32.5231 41.1825 33.1836 40.5782 33.1836 39.8057C33.1836 39.0182 32.5942 38.4289 31.8067 38.4289C31.0904 38.4289 30.4299 39.0331 30.4299 39.8057ZM15.2581 39.8057C15.2581 37.6422 17.0389 35.8614 19.2024 35.8614C21.3658 35.8614 23.1467 37.6422 23.1467 39.8057C23.1467 41.9691 21.3658 43.75 19.2024 43.75C17.0389 43.75 15.2581 41.9691 15.2581 39.8057ZM17.8256 39.8057C17.8256 40.522 18.4298 41.1825 19.2024 41.1825C19.9187 41.1825 20.5792 40.5782 20.5792 39.8057C20.5792 39.0331 19.9187 38.4289 19.2024 38.4289C18.4861 38.4289 17.8256 39.0331 17.8256 39.8057Z" fill="#5B5F74"/>
</svg>