<svg width="50" height="50" viewBox="0 0 50 50" fill="none" xmlns="http://www.w3.org/2000/svg">
<path fill-rule="evenodd" clip-rule="evenodd" d="M9.5232 37.6607C6.59577 34.0979 5 29.6733 5 25.0004C5 13.9722 13.9714 5 25.0004 5C36.0288 5 45 13.9722 45 25.0004C45 29.6994 43.3889 34.1407 40.4325 37.7106L38.3856 39.8315C34.7049 43.1601 29.9898 45 25.0005 45C19.9827 45 15.2415 43.1541 11.5521 39.7931L9.5232 37.6607ZM21.9617 33.5723C21.9617 34.4312 22.0098 35.2679 22.0839 36.1235L14.4769 38.7699C17.4856 41.0792 21.1482 42.33 25.0004 42.33C28.8222 42.33 32.4626 41.0959 35.46 38.8163L27.8905 36.1849C27.9856 35.303 28.0375 34.4579 28.0375 33.5723C27.0908 34.0114 26.0696 34.2574 24.9996 34.2574C23.9302 34.2574 22.9086 34.0114 21.9617 33.5723ZM29.768 28.5571C30.855 26.8716 31.6667 25.643 31.6667 23.1453C31.6667 20.4875 31.3365 19.2465 30.1282 17.5356C28.9188 15.8231 27.2436 14.7436 24.9995 14.7436C22.9487 14.7436 21.0239 15.8231 19.8145 17.5356C18.6062 19.2465 18.3333 20.4875 18.3333 23.1453C18.3333 25.6439 19.1468 26.8747 20.2352 28.5601C20.6441 29.1929 21.1066 29.7397 21.6136 30.1885C22.6209 31.0824 23.7803 31.5856 25.0013 31.5856C26.2225 31.5856 27.3813 31.0836 28.3884 30.1891C28.8952 29.739 29.3595 29.191 29.768 28.5571ZM42.3273 25.0012C42.3273 15.4464 34.5535 7.67256 24.9995 7.67256C15.4455 7.67256 7.67084 15.4464 7.67084 25.0012C7.67084 29.3866 9.28537 33.5159 12.2376 36.7221L19.2908 34.2682V31.6277C17.1499 29.3913 15.6607 26.9769 15.6607 23.1453C15.6607 19.8397 16.174 17.971 17.8205 15.7692C19.467 13.5676 22.4027 12.0719 24.9986 12.0719C27.5945 12.0719 30.4739 13.5676 32.1204 15.7693C33.7669 17.9711 34.3375 19.8398 34.3375 23.1454C34.3375 26.9763 32.85 29.3881 30.7109 31.6251V34.3357L37.7135 36.772C40.6971 33.5571 42.3282 29.4118 42.3273 25.0012Z" fill="#5B5F74"/>
</svg>