<svg width="55" height="55" viewBox="0 0 55 55" fill="none" xmlns="http://www.w3.org/2000/svg">
<path d="M16.8665 24.0625C17.5902 27.9704 20.7865 31.7215 22.2942 33.1086C22.2942 33.9528 22.1132 35.8947 21.3896 36.9079C5.12639 41.8127 0.507899 48.0411 0.0408699 51.3848C-0.0158081 51.7905 -0.0113817 54.6867 0.040832 55H54.8879C54.929 54.753 54.9126 51.9421 54.8879 51.6366C54.6225 48.362 50.1922 41.9386 33.5113 36.9079C32.7876 35.8947 32.6067 33.9528 32.6067 33.1086C34.1143 31.7215 37.3106 27.9704 38.0343 24.0625C40.7481 22.977 40.929 18.0921 39.4817 16.2829C39.4817 11.398 40.5672 0.361842 28.4455 0H26.4553C14.3336 0.361842 15.4192 11.398 15.4192 16.2829C13.9718 18.0921 14.1527 22.977 16.8665 24.0625Z" fill="#C1C1C1"/>
</svg>