<?xml version="1.0" standalone="no"?>
<!DOCTYPE svg PUBLIC "-//W3C//DTD SVG 20010904//EN"
 "http://www.w3.org/TR/2001/REC-SVG-20010904/DTD/svg10.dtd">
<svg version="1.0" xmlns="http://www.w3.org/2000/svg"
 width="256.000000pt" height="256.000000pt" viewBox="0 0 256.000000 256.000000"
 preserveAspectRatio="xMidYMid meet">
<metadata>
Created by potrace 1.11, written by Peter Selinger 2001-2013
</metadata>
<g transform="translate(0.000000,256.000000) scale(0.100000,-0.100000)"
fill="#e31d23" stroke="none">
<path d="M350 1287 c0 -453 3 -826 6 -830 7 -7 709 809 709 823 0 11 -697 829
-707 829 -5 1 -8 -369 -8 -822z"/>
<path d="M828 2053 c27 -32 138 -161 246 -288 109 -126 201 -231 205 -233 6
-2 406 456 484 555 l18 23 -501 0 -502 0 50 -57z"/>
<path d="M1845 1695 l-356 -414 352 -411 c194 -225 356 -410 360 -410 5 0 9
371 9 825 0 454 -2 825 -5 825 -3 0 -165 -187 -360 -415z"/>
<path d="M1029 742 l-246 -287 248 -3 c137 -1 361 -1 499 0 l250 3 -244 285
c-134 156 -248 286 -252 287 -5 2 -120 -127 -255 -285z"/>
</g>
</svg>
